<svg width="256" height="256" viewBox="0 0 256 256" fill="none" xmlns="http://www.w3.org/2000/svg">
  <rect width="256" height="256" rx="36" fill="#062638" />
  <g filter="url(#glow)">
    <circle cx="128" cy="120" r="68" fill="#00F5A0" fill-opacity="0.15" />
  </g>
  <path d="M128 52c-26 0-46 21-46 47 0 26 20 47 46 47s46-21 46-47c0-26-20-47-46-47z" fill="#0f2f46" stroke="#38f6c4" stroke-width="6" />
  <path d="M96 128c0 18 14 32 32 32s32-14 32-32" stroke="#7bfff0" stroke-width="6" stroke-linecap="round" />
  <path d="M103 114c8 6 22 11 25 11s17-5 25-11" stroke="#7bfff0" stroke-width="5" stroke-linecap="round" />
  <path d="M110 92a10 10 0 1 1-20 0 10 10 0 0 1 20 0zm76 0a10 10 0 1 1-20 0 10 10 0 0 1 20 0z" fill="#f8fafc" />
  <rect x="72" y="150" width="112" height="70" rx="26" fill="#102d42" stroke="#4dfed2" stroke-width="6" />
  <path d="M86 174h84c8 0 14 6 14 14v30H72v-30c0-8 6-14 14-14z" fill="#1c415b" />
  <rect x="110" y="178" width="36" height="28" rx="10" fill="#00f5a0" fill-opacity="0.65" />
  <path d="M70 164c0-24 24-42 58-42s58 18 58 42" stroke="#3ff3c5" stroke-width="6" stroke-linecap="round" />
  <defs>
    <filter id="glow" x="20" y="12" width="216" height="216" filterUnits="userSpaceOnUse" color-interpolation-filters="sRGB">
      <feGaussianBlur stdDeviation="18" result="blur" />
      <feMerge>
        <feMergeNode in="blur" />
        <feMergeNode in="SourceGraphic" />
      </feMerge>
    </filter>
  </defs>
</svg>
